<?xml version="1.0" standalone="no"?>
<!DOCTYPE svg PUBLIC "-//W3C//DTD SVG 20010904//EN"
 "http://www.w3.org/TR/2001/REC-SVG-20010904/DTD/svg10.dtd">
<svg version="1.0" xmlns="http://www.w3.org/2000/svg"
 width="700.000000pt" height="700.000000pt" viewBox="0 0 700.000000 700.000000"
 preserveAspectRatio="xMidYMid meet">
<metadata>
Created by potrace 1.14, written by Peter Selinger 2001-2017
</metadata>
<g transform="translate(0.000000,700.000000) scale(0.100000,-0.100000)"
fill="#000000" stroke="none">
<path d="M6865 6573 c-38 -7 -79 -15 -90 -17 -87 -17 -305 -59 -325 -62 -14
-2 -81 -15 -150 -29 -173 -33 -450 -86 -480 -91 -47 -9 -445 -85 -565 -109
-101 -20 -816 -157 -895 -171 -14 -3 -81 -16 -150 -29 -69 -13 -303 -58 -520
-100 -217 -42 -489 -94 -605 -116 -115 -23 -221 -43 -235 -45 -14 -2 -56 -11
-95 -19 -38 -8 -104 -19 -145 -24 -41 -6 -95 -13 -120 -17 -25 -3 -54 -7 -65
-9 -46 -6 -140 -19 -145 -20 -3 -1 -25 -5 -50 -9 -340 -58 -700 -207 -1005
-415 -259 -176 -539 -457 -701 -705 -25 -39 -55 -83 -65 -98 -34 -48 -131
-231 -171 -323 -80 -179 -163 -441 -183 -575 -4 -24 -8 -47 -10 -51 -4 -5 -17
-106 -30 -229 -17 -156 -7 -476 20 -625 154 -872 655 -1570 1410 -1965 856
-448 1938 -398 2731 125 289 192 575 474 768 760 144 212 244 428 361 775 51
153 394 1067 426 1135 5 11 20 49 33 85 13 36 125 331 249 655 350 917 563
1476 582 1525 9 25 21 54 26 65 46 107 274 726 270 733 -3 5 -37 3 -76 -5z"/>
</g>
</svg>
